<svg width="19" height="20" viewBox="0 0 19 20" fill="none" xmlns="http://www.w3.org/2000/svg">
<rect width="19" height="19.7857" rx="9.5" fill="#FF0000"/>
<path d="M7.27422 7.98754C7.31222 7.48811 7.50493 7.09725 7.85236 6.81496C8.19979 6.53268 8.65036 6.39154 9.20407 6.39154C9.57322 6.39154 9.89079 6.45939 10.1568 6.59511C10.4282 6.72539 10.6318 6.90454 10.7675 7.13254C10.9086 7.36054 10.9792 7.61839 10.9792 7.90611C10.9792 8.24268 10.8815 8.53311 10.6861 8.77739C10.4961 9.02168 10.2464 9.17911 9.93693 9.24968V9.29039C10.2898 9.37725 10.5694 9.54825 10.7756 9.80339C10.9819 10.0585 11.0851 10.3924 11.0851 10.805C11.0851 11.1144 11.0145 11.394 10.8734 11.6437C10.7322 11.888 10.5205 12.0807 10.2382 12.2218C9.95593 12.363 9.61664 12.4335 9.22036 12.4335C8.64493 12.4335 8.17264 12.2843 7.8035 11.9857C7.43436 11.6817 7.22807 11.2528 7.18464 10.6991H7.90122C7.93922 11.0248 8.07222 11.2908 8.30022 11.4971C8.52822 11.7034 8.83222 11.8065 9.21222 11.8065C9.59222 11.8065 9.87993 11.7088 10.0754 11.5134C10.2762 11.3125 10.3766 11.0547 10.3766 10.7398C10.3766 10.3327 10.2409 10.0395 9.9695 9.86039C9.69807 9.68125 9.28822 9.59168 8.73993 9.59168H8.55264V8.97282H8.74807C9.2475 8.96739 9.62479 8.88597 9.87993 8.72854C10.1351 8.56568 10.2626 8.31597 10.2626 7.97939C10.2626 7.69168 10.1676 7.46097 9.97764 7.28725C9.79307 7.11354 9.52707 7.02668 9.17964 7.02668C8.84307 7.02668 8.57164 7.11354 8.36536 7.28725C8.15907 7.46097 8.03693 7.69439 7.99893 7.98754H7.27422Z" fill="white"/>
</svg>
